<?xml version="1.0" encoding="UTF-8" standalone="no"?>
<svg
   xmlns:dc="http://purl.org/dc/elements/1.1/"
   xmlns:cc="http://creativecommons.org/ns#"
   xmlns:rdf="http://www.w3.org/1999/02/22-rdf-syntax-ns#"
   xmlns:svg="http://www.w3.org/2000/svg"
   xmlns="http://www.w3.org/2000/svg"
   xmlns:sodipodi="http://sodipodi.sourceforge.net/DTD/sodipodi-0.dtd"
   xmlns:inkscape="http://www.inkscape.org/namespaces/inkscape"
   enable-background="new 0 0 24 24"
   height="152"
   id="Layer_1"
   version="1.1"
   viewBox="0 0 152 152"
   width="152"
   xml:space="preserve"
   inkscape:version="0.91 r13725"
   sodipodi:docname="churchgo.svg"
   inkscape:export-filename="C:\dev\biblefoundry-website\_media\churchgo.png"
   inkscape:export-xdpi="90"
   inkscape:export-ydpi="90"><metadata
     id="metadata4147"><rdf:RDF><cc:Work
         rdf:about=""><dc:format>image/svg+xml</dc:format><dc:type
           rdf:resource="http://purl.org/dc/dcmitype/StillImage" /><dc:title></dc:title></cc:Work></rdf:RDF></metadata><defs
     id="defs4145" /><sodipodi:namedview
     pagecolor="#ffffff"
     bordercolor="#666666"
     borderopacity="1"
     objecttolerance="10"
     gridtolerance="10"
     guidetolerance="10"
     inkscape:pageopacity="0"
     inkscape:pageshadow="2"
     inkscape:window-width="1920"
     inkscape:window-height="1017"
     id="namedview4143"
     showgrid="false"
     inkscape:zoom="4.4166667"
     inkscape:cx="19.18266"
     inkscape:cy="88.088572"
     inkscape:window-x="-8"
     inkscape:window-y="-8"
     inkscape:window-maximized="1"
     inkscape:current-layer="Layer_1" /><g
     id="g4162"
     transform="matrix(6.4236707,0,0,6.4236707,-252.02034,-257.93193)"
     style="fill:#b3b3b3"><polygon
       transform="translate(39.064314,40.984596)"
       points="14.25,3 14.25,1.5 12.75,1.5 12.75,0 11.25,0 11.25,1.5 9.75,1.5 9.75,3 11.25,3 11.25,4.5 8.263,7.487 15.737,7.487 12.75,4.5 12.75,3 "
       id="polygon4139"
       style="fill:#b3b3b3" /><path
       d="m 53.314314,50.984596 0,-2.914 -4.5,0 0,2.914 -7.5,6 3,0 0,6 4.5,0 0,-3.75 c 0,-1.242 1.006,-2.25 2.25,-2.25 1.242,0 2.25,1.008 2.25,2.25 l 0,3.75 4.5,0 0,-6 3,0 -7.5,-6 z"
       id="path4141"
       inkscape:connector-curvature="0"
       style="fill:#b3b3b3" /></g></svg>